<svg width="304" height="277" viewBox="0 0 304 277" fill="none" xmlns="http://www.w3.org/2000/svg">
<g clip-path="url(#clip0_256_271)">
<path d="M198.975 163.743C198.279 159.564 197.165 155.455 195.424 151.694C190.131 140.202 182.679 130.451 171.535 123.974C154.194 113.875 133.231 113.944 116.098 124.322C108.298 128.988 101.96 135.744 97.8511 143.823C96.4582 146.54 95.3439 149.465 94.3688 152.39C89.8419 166.738 90.0508 186.03 98.1993 199.124C100.846 203.442 104.676 207.064 109.412 208.875C114.078 210.686 119.72 210.477 123.898 207.76C129.331 204.208 130.306 197.522 129.331 191.532C128.077 183.871 127.032 176.419 129.888 168.897C130.793 166.529 132.047 164.161 133.857 162.489C134.972 161.375 136.295 160.539 137.688 159.842C140.613 158.38 144.026 157.753 147.229 158.31C152.871 159.216 157.537 163.603 160.044 168.827C162.551 173.981 163.248 179.831 163.526 185.612C164.71 210.686 158.79 236.525 152.383 260.623C151.756 263.131 151.06 265.568 150.363 268.006C149.806 269.886 148.901 272.324 150.085 274.205C150.642 274.971 151.408 275.528 152.313 275.946C156.005 277.408 159.069 275.18 161.507 272.672C176.202 257.907 185.604 238.893 192.011 219.252C194.379 211.939 196.468 204.556 197.861 196.965C199.742 186.587 200.856 174.747 198.975 163.812" fill="#009591"/>
<path d="M304 48.1267C304 44.3657 300.657 41.8584 297.105 41.9977C293.484 42.137 290.141 44.0175 286.798 45.2712C222.307 69.7873 149.458 74.4537 81.4845 64.6333C69.8538 62.9618 58.0838 60.5937 46.3835 58.7829C39.0708 57.5989 31.8277 55.997 24.4453 55.3701C18.1773 54.9523 10.3074 54.6737 5.22335 59.0615C-1.53221 64.8423 -1.0447 75.8467 2.78577 83.0901C7.38234 91.7264 15.3915 98.343 23.6792 103.218C31.7581 108.024 41.4387 113.178 51.0497 112.551C77.0272 110.88 102.935 108.442 128.773 105.029C172.859 99.3181 219.033 93.9552 260.402 76.8218C273.913 71.2499 287.285 64.2851 298.846 55.2308C300.936 53.6289 304 51.052 304 47.9874" fill="#009591"/>
<path d="M118.954 26.0486C118.954 40.1175 130.306 51.4701 144.304 51.4701C158.303 51.4701 169.655 40.1175 169.655 26.0486C169.655 23.9591 169.167 21.8697 168.262 19.9892C166.103 15.3924 163.666 13.1637 163.874 7.59182C164.223 0.139472 154.612 0.0698242 149.458 0.0698242C143.817 0.0698242 137.897 0.835953 132.813 3.41293C128.773 5.43273 125.291 8.56689 122.854 12.3975C120.346 16.2978 118.953 20.8946 118.814 25.561V26.1182" fill="#ED1651"/>
</g>
<defs>
<clipPath id="clip0_256_271">
<rect width="304" height="276.364" fill="white"/>
</clipPath>
</defs>
</svg>
