<svg width="678" height="89" viewBox="0 0 678 89" fill="none" xmlns="http://www.w3.org/2000/svg">
<g clip-path="url(#clip0_259_266)">
<path fill-rule="evenodd" clip-rule="evenodd" d="M420.049 47.2485C421.85 49.0817 422.75 51.6419 422.75 54.9259V69.2217H416.698V55.7615C416.698 53.8543 416.223 52.3956 415.272 51.3838C414.321 50.372 413.024 49.8669 411.381 49.8669C409.739 49.8669 408.434 50.372 407.469 51.3838C406.503 52.3956 406.02 53.8543 406.02 55.7615V69.2217H399.968V55.7615C399.968 53.8543 399.493 52.3956 398.542 51.3838C397.591 50.372 396.294 49.8669 394.651 49.8669C392.98 49.8669 391.661 50.372 390.696 51.3838C389.729 52.3956 389.247 53.8543 389.247 55.7615V69.2217H383.195V44.852H389.247V47.7993C390.025 46.7733 391.025 45.9661 392.252 45.3791C393.476 44.7922 394.825 44.4995 396.294 44.4995C398.166 44.4995 399.838 44.9023 401.308 45.7096C402.779 46.5168 403.916 47.6671 404.723 49.162C405.502 47.7552 406.633 46.6254 408.117 45.7757C409.602 44.9244 411.208 44.4995 412.937 44.4995C415.877 44.4995 418.247 45.4169 420.049 47.2485Z" fill="#0F0060"/>
<path fill-rule="evenodd" clip-rule="evenodd" d="M445.519 53.0783C444.947 52.027 444.176 51.22 443.204 50.6573C442.234 50.0961 441.191 49.8147 440.078 49.8147C438.964 49.8147 437.935 50.0899 436.993 50.6356C436.05 51.1829 435.286 51.9837 434.7 53.035C434.115 54.0863 433.822 55.3324 433.822 56.7733C433.822 58.2142 434.115 59.4757 434.7 60.5548C435.286 61.6355 436.056 62.4641 437.014 63.0408C437.971 63.6175 438.991 63.905 440.078 63.905C441.191 63.905 442.234 63.6236 443.204 63.0624C444.176 62.4997 444.947 61.6942 445.519 60.6414C446.09 59.5901 446.375 58.3301 446.375 56.8598C446.375 55.3911 446.09 54.1311 445.519 53.0783ZM429.131 50.3342C430.087 48.4604 431.387 47.0211 433.03 46.0115C434.671 45.0035 436.507 44.4995 438.535 44.4995C440.306 44.4995 441.856 44.8597 443.184 45.5802C444.512 46.3006 445.575 47.2081 446.375 48.3027V44.8876H452.417V68.8321H446.375V65.3304C445.604 66.4544 444.541 67.3835 443.184 68.1194C441.827 68.8538 440.262 69.2217 438.492 69.2217C436.492 69.2217 434.671 68.7023 433.03 67.6649C431.387 66.6275 430.087 65.1666 429.131 63.2789C428.173 61.3912 427.695 59.2237 427.695 56.7733C427.695 54.3538 428.173 52.2079 429.131 50.3342Z" fill="#0F0060"/>
<path fill-rule="evenodd" clip-rule="evenodd" d="M471.67 69.2219L463.469 58.9714V69.2219H457.361V37.083H463.469V55.3671L471.583 45.1601H479.523L468.878 57.2345L479.611 69.2219H471.67Z" fill="#0F0060"/>
<path fill-rule="evenodd" clip-rule="evenodd" d="M500.3 54.6135C500.269 53.0567 499.687 51.8121 498.55 50.8753C497.412 49.9384 496.022 49.4699 494.377 49.4699C492.822 49.4699 491.513 49.9229 490.452 50.8304C489.389 51.7395 488.739 52.9995 488.5 54.6135H500.3ZM506.626 58.6749H488.455C488.605 60.4048 489.232 61.7592 490.339 62.7378C491.445 63.7179 492.808 64.208 494.422 64.208C496.756 64.208 498.415 63.2433 499.402 61.3124H506.178C505.459 63.6175 504.084 65.5113 502.049 66.9955C500.016 68.4797 497.518 69.2217 494.557 69.2217C492.164 69.2217 490.017 68.71 488.118 67.6881C486.218 66.6646 484.738 65.216 483.677 63.3438C482.613 61.4716 482.084 59.3103 482.084 56.8614C482.084 54.3831 482.607 52.2079 483.653 50.3342C484.701 48.4619 486.167 47.0211 488.051 46.0131C489.935 45.0035 492.105 44.4995 494.557 44.4995C496.92 44.4995 499.037 44.9896 500.905 45.9682C502.774 46.9484 504.225 48.3398 505.257 50.1394C506.289 51.9405 506.806 54.0075 506.806 56.3419C506.806 57.2062 506.745 57.9838 506.626 58.6749Z" fill="#0F0060"/>
<path fill-rule="evenodd" clip-rule="evenodd" d="M558.492 47.2485C560.293 49.0817 561.194 51.6419 561.194 54.9259V69.2217H555.141V55.7615C555.141 53.8543 554.666 52.3956 553.715 51.3838C552.764 50.372 551.468 49.8669 549.825 49.8669C548.182 49.8669 546.877 50.372 545.913 51.3838C544.946 52.3956 544.464 53.8543 544.464 55.7615V69.2217H538.413V55.7615C538.413 53.8543 537.937 52.3956 536.986 51.3838C536.035 50.372 534.738 49.8669 533.095 49.8669C531.424 49.8669 530.105 50.372 529.14 51.3838C528.174 52.3956 527.693 53.8543 527.693 55.7615V69.2217H521.639V44.852H527.693V47.7993C528.469 46.7733 529.471 45.9661 530.696 45.3791C531.92 44.7922 533.269 44.4995 534.738 44.4995C536.612 44.4995 538.283 44.9023 539.752 45.7096C541.223 46.5168 542.361 47.6671 543.168 49.162C543.946 47.7552 545.076 46.6254 546.56 45.7757C548.045 44.9244 549.651 44.4995 551.38 44.4995C554.32 44.4995 556.69 45.4169 558.492 47.2485Z" fill="#0F0060"/>
<path fill-rule="evenodd" clip-rule="evenodd" d="M581.427 63.149C582.397 62.6156 583.169 61.8164 583.748 60.7496C584.327 59.6844 584.615 58.3873 584.615 56.8614C584.615 54.5841 584.015 52.834 582.815 51.6096C581.615 50.3852 580.147 49.7729 578.412 49.7729C576.678 49.7729 575.224 50.3852 574.054 51.6096C572.883 52.834 572.297 54.5841 572.297 56.8614C572.297 59.1371 572.868 60.8872 574.011 62.1116C575.153 63.3376 576.591 63.9498 578.326 63.9498C579.424 63.9498 580.457 63.6824 581.427 63.149ZM572.081 67.6881C570.23 66.6646 568.776 65.216 567.722 63.3438C566.665 61.4716 566.139 59.3103 566.139 56.8614C566.139 54.4125 566.68 52.2512 567.765 50.3774C568.849 48.5052 570.331 47.0566 572.211 46.0332C574.09 45.0112 576.186 44.4995 578.499 44.4995C580.813 44.4995 582.909 45.0112 584.789 46.0332C586.668 47.0566 588.149 48.5052 589.234 50.3774C590.318 52.2512 590.861 54.4125 590.861 56.8614C590.861 59.3103 590.304 61.4716 589.19 63.3438C588.078 65.216 586.573 66.6646 584.68 67.6881C582.786 68.71 580.668 69.2217 578.326 69.2217C576.012 69.2217 573.93 68.71 572.081 67.6881Z" fill="#0F0060"/>
<path fill-rule="evenodd" clip-rule="evenodd" d="M615.485 47.2485C617.198 49.0817 618.055 51.6419 618.055 54.9259V69.2217H612.156V55.7615C612.156 53.826 611.691 52.3374 610.766 51.2957C609.837 50.2556 608.574 49.7347 606.973 49.7347C605.342 49.7347 604.057 50.2556 603.116 51.2957C602.175 52.3374 601.705 53.826 601.705 55.7615V69.2217H595.805V44.852H601.705V47.8874C602.49 46.8315 603.496 46.0023 604.718 45.4012C605.939 44.8001 607.282 44.4995 608.743 44.4995C611.524 44.4995 613.771 45.4169 615.485 47.2485Z" fill="#0F0060"/>
<path fill-rule="evenodd" clip-rule="evenodd" d="M641.216 54.6135C641.186 53.0567 640.603 51.8121 639.467 50.8753C638.329 49.9384 636.938 49.4699 635.294 49.4699C633.738 49.4699 632.43 49.9229 631.367 50.8304C630.307 51.7395 629.655 52.9995 629.416 54.6135H641.216ZM647.541 58.6749H629.372C629.52 60.4048 630.149 61.7592 631.255 62.7378C632.362 63.7179 633.723 64.208 635.338 64.208C637.673 64.208 639.332 63.2433 640.319 61.3124H647.093C646.376 63.6175 644.999 65.5113 642.965 66.9955C640.93 68.4797 638.435 69.2217 635.472 69.2217C633.08 69.2217 630.934 68.71 629.036 67.6881C627.135 66.6646 625.654 65.216 624.593 63.3438C623.531 61.4716 623 59.3103 623 56.8614C623 54.3831 623.525 52.2079 624.571 50.3342C625.617 48.4619 627.084 47.0211 628.968 46.0131C630.852 45.0035 633.02 44.4995 635.472 44.4995C637.836 44.4995 639.951 44.9896 641.821 45.9682C643.691 46.9484 645.141 48.3398 646.173 50.1394C647.205 51.9405 647.722 54.0075 647.722 56.3419C647.722 57.2062 647.661 57.9838 647.541 58.6749Z" fill="#0F0060"/>
<mask id="mask0_259_266" style="mask-type:alpha" maskUnits="userSpaceOnUse" x="650" y="44" width="28" height="38">
<path d="M650.194 44.4995H677.389V81.5828H650.194V44.4995Z" fill="white"/>
</mask>
<g mask="url(#mask0_259_266)">
<path fill-rule="evenodd" clip-rule="evenodd" d="M677.389 44.4995L661.686 81.5828H654.863L660.358 69.0413L650.194 44.4995H657.382L663.929 62.0869L670.567 44.4995H677.389Z" fill="#0F0060"/>
</g>
<mask id="mask1_259_266" style="mask-type:alpha" maskUnits="userSpaceOnUse" x="79" y="0" width="67" height="89">
<path d="M79.1112 0H145.861V89H79.1112V0Z" fill="white"/>
</mask>
<g mask="url(#mask1_259_266)">
<path fill-rule="evenodd" clip-rule="evenodd" d="M112.425 73.2207C103.249 73.2207 95.7851 65.8538 95.7851 56.7984C95.7851 47.7413 103.249 40.3745 112.425 40.3745C121.602 40.3745 129.065 47.7413 129.065 56.7984C129.065 65.8538 121.602 73.2207 112.425 73.2207ZM115.215 24.5551C108.656 24.5551 102.585 26.8499 98.1229 31.0168L96.5868 32.449V0H79.1112V55.4548C79.1112 76.1453 91.6435 89.0005 111.818 89.0005C131.544 89.0005 145.861 75.4743 145.861 56.8379C145.861 38.132 132.971 24.5551 115.215 24.5551Z" fill="#0F0060"/>
</g>
<path fill-rule="evenodd" clip-rule="evenodd" d="M51.2079 0L17.3244 39.3909V0H0V86.5278H17.3244V47.4832L51.8961 86.5278H74.1667L35.9167 43.2639L73.1312 0H51.2079Z" fill="#0F0060"/>
<mask id="mask2_259_266" style="mask-type:alpha" maskUnits="userSpaceOnUse" x="301" y="0" width="60" height="87">
<path d="M301.611 0H360.944V86.5278H301.611V0Z" fill="white"/>
</mask>
<g mask="url(#mask2_259_266)">
<path fill-rule="evenodd" clip-rule="evenodd" d="M360.944 26.4605H341.469L319.094 52.4V0H301.611V86.5279H319.094V60.5884L341.469 86.5279H360.944L335.038 56.4942L360.944 26.4605Z" fill="#0F0060"/>
</g>
<path fill-rule="evenodd" clip-rule="evenodd" d="M268.826 24.7227C258.342 24.7227 251.872 29.6549 248.783 33.1113V26.7673H232.389V86.5282H249.373L249.372 53.9826C249.372 45.8478 255.008 40.165 262.055 40.165C269.105 40.165 274.739 45.8478 274.739 53.9826V86.5282H291.722V48.8576C291.722 34.874 281.639 24.7227 268.826 24.7227Z" fill="#0F0060"/>
<mask id="mask3_259_266" style="mask-type:alpha" maskUnits="userSpaceOnUse" x="153" y="24" width="68" height="66">
<path d="M153.278 24.7227H220.028V89.0004H153.278V24.7227Z" fill="white"/>
</mask>
<g mask="url(#mask3_259_266)">
<path fill-rule="evenodd" clip-rule="evenodd" d="M187.055 73.2624C177.994 73.2624 170.624 65.9148 170.624 56.8831C170.624 47.8498 177.994 40.5022 187.055 40.5022C196.116 40.5022 203.486 47.8498 203.486 56.8831C203.486 65.9148 196.116 73.2624 187.055 73.2624ZM186.532 24.7227C167.264 24.7227 153.278 38.264 153.278 56.921C153.278 75.5085 166.165 89.0009 183.921 89.0009C196.542 89.0009 203.285 79.8902 203.351 79.7987L204.33 78.4507V86.9868H220.028V56.921C220.028 38.264 205.941 24.7227 186.532 24.7227Z" fill="#0F0060"/>
</g>
</g>
<defs>
<clipPath id="clip0_259_266">
<rect width="678" height="89.0005" fill="white"/>
</clipPath>
</defs>
</svg>
