<svg width="301" height="301" viewBox="0 0 301 301" fill="none" xmlns="http://www.w3.org/2000/svg">
<path d="M301 0H0V301H301V0Z" fill="#0091D0"/>
<path d="M0 0L75.2341 75.2659L150.5 0H0Z" fill="#0091D0"/>
<path d="M0 0V150.5L75.2341 75.2659L0 0Z" fill="#009CD8"/>
<path d="M150.5 150.5L75.2659 75.2339L0 150.5H150.5Z" fill="#0091D0"/>
<path d="M150.5 150.5V0L75.2659 75.2341L150.5 150.5Z" fill="#0082C9"/>
<path d="M150.5 0V150.5L225.734 75.2659L150.5 0Z" fill="#0071BB"/>
<path d="M301 150.5L225.766 75.2339L150.5 150.5H301Z" fill="#004C98"/>
<path d="M0 150.5L75.2341 225.766L150.5 150.5H0Z" fill="#0082C9"/>
<path d="M0 150.5V301L75.2341 225.766L0 150.5Z" fill="#0071BB"/>
<path d="M150.5 301L75.2659 225.734L0 301H150.5Z" fill="#0061AF"/>
<path d="M150.5 301V150.5L75.2659 225.734L150.5 301Z" fill="#00529C"/>
<path d="M150.5 150.5L225.734 225.766L301 150.5H150.5Z" fill="#1D388B"/>
<path d="M150.5 150.5V301L225.734 225.766L150.5 150.5Z" fill="#004C98"/>
<path d="M301 301L225.766 225.734L150.5 301H301Z" fill="#1D388B"/>
<path d="M301 301V150.5L225.766 225.734L301 301Z" fill="#1D388B"/>
<path d="M150.5 0L225.734 75.2659L301 0H150.5Z" fill="#0061AF"/>
<path d="M301 150.5V0L225.766 75.2341L301 150.5Z" fill="#00529C"/>
<path d="M301 188.149L204.634 96.3657L58.3987 242.983L111.737 296.322L204.634 204.825L301 300.682V188.149Z" fill="white"/>
</svg>
