<svg width="314" height="282" viewBox="0 0 314 282" fill="none" xmlns="http://www.w3.org/2000/svg">
<g clip-path="url(#clip0_259_193)">
<path d="M203.975 166.743C203.279 162.564 202.165 158.455 200.424 154.694C195.131 143.202 187.679 133.451 176.535 126.974C159.194 116.875 138.231 116.944 121.098 127.322C113.298 131.988 106.96 138.744 102.851 146.823C101.458 149.54 100.344 152.465 99.3688 155.39C94.8419 169.738 95.0508 189.03 103.199 202.124C105.846 206.442 109.676 210.064 114.412 211.875C119.078 213.686 124.72 213.477 128.898 210.76C134.331 207.208 135.306 200.522 134.331 194.532C133.077 186.871 132.032 179.419 134.888 171.897C135.793 169.529 137.047 167.161 138.857 165.489C139.972 164.375 141.295 163.539 142.688 162.842C145.613 161.38 149.026 160.753 152.229 161.31C157.871 162.216 162.537 166.603 165.044 171.827C167.551 176.981 168.248 182.831 168.526 188.612C169.71 213.686 163.79 239.525 157.383 263.623C156.756 266.131 156.06 268.568 155.363 271.006C154.806 272.886 153.901 275.324 155.085 277.205C155.642 277.971 156.408 278.528 157.313 278.946C161.005 280.408 164.069 278.18 166.507 275.672C181.202 260.907 190.604 241.893 197.011 222.252C199.379 214.939 201.468 207.556 202.861 199.965C204.742 189.587 205.856 177.747 203.975 166.812" fill="#009591"/>
<path d="M309 51.1269C309 47.3659 305.657 44.8585 302.105 44.9978C298.484 45.1371 295.141 47.0176 291.798 48.2713C227.307 72.7874 154.458 77.4538 86.4845 67.6335C74.8538 65.9619 63.0839 63.5939 51.3835 61.783C44.0708 60.599 36.8277 58.9971 29.4454 58.3703C23.1773 57.9524 15.3075 57.6738 10.2234 62.0616C3.46782 67.8424 3.95533 78.8468 7.7858 86.0902C12.3824 94.7266 20.3915 101.343 28.6793 106.218C36.7581 111.024 46.4387 116.178 56.0497 115.551C82.0273 113.88 107.935 111.442 133.773 108.029C177.859 102.318 224.033 96.9553 265.402 79.8219C278.913 74.25 292.285 67.2852 303.846 58.231C305.936 56.6291 309 54.0521 309 50.9876" fill="#009591"/>
<path d="M123.954 29.0484C123.954 43.1173 135.306 54.4699 149.304 54.4699C163.303 54.4699 174.655 43.1173 174.655 29.0484C174.655 26.9589 174.167 24.8695 173.262 22.989C171.103 18.3922 168.666 16.1635 168.874 10.5916C169.223 3.13929 159.612 3.06964 154.458 3.06964C148.817 3.06964 142.897 3.83577 137.813 6.41275C133.773 8.43254 130.291 11.5667 127.854 15.3974C125.346 19.2976 123.953 23.8944 123.814 28.5608V29.118" fill="#ED1651"/>
</g>
<defs>
<clipPath id="clip0_259_193">
<rect width="304" height="276.364" fill="white" transform="translate(5 3)"/>
</clipPath>
</defs>
</svg>
